<svg viewBox="0 0 243 190" fill="none" xmlns="http://www.w3.org/2000/svg">
<mask id="mask0" mask-type="alpha" maskUnits="userSpaceOnUse" x="0" y="0" width="243" height="190">
<rect width="243" height="190" fill="#C4C4C4"/>
</mask>
<g mask="url(#mask0)">
<path opacity="0.8" d="M217.246 135.17H42.876V139.59H217.246V135.17Z" fill="url(#paint0_linear)"/>
<path opacity="0.7" d="M141.456 5.54141L152.916 1.48848C154.747 0.841731 156.75 1.00342 158.473 1.89808C211.904 29.417 234.166 94.652 208.135 149.323C207.478 150.714 206.788 152.072 206.078 153.419C204.333 156.729 200.305 158.065 196.934 156.459L125.592 122.43C123.966 121.654 122.705 120.274 122.07 118.582L99.1833 57.0869C98.871 56.2138 98.2355 55.5024 97.4062 55.1144L93.3782 53.1957C89.9209 51.5465 88.4454 47.3965 90.0933 43.9365C91.7411 40.4764 95.8876 38.9996 99.3449 40.6488L99.3664 40.6596C102.824 42.3088 106.97 40.8429 108.618 37.372L113.594 26.9163C115.242 23.4562 119.388 21.9795 122.845 23.6287L122.867 23.6395C126.324 25.2887 130.471 23.8227 132.119 20.3518L137.482 9.08772C138.301 7.43852 139.722 6.15582 141.456 5.54141ZM33.7866 168.154L65.7418 101.044C67.7989 96.7108 65.968 91.5261 61.6384 89.4672L58.9243 88.1738C54.5946 86.115 52.7637 80.9302 54.8208 76.597L57.3087 71.3692C59.3658 67.036 57.5349 61.8513 53.2053 59.7925L41.0996 54.0149C39.0209 53.0232 37.4269 51.2554 36.6515 49.0889L32.4726 37.3289C31.6972 35.1623 30.1032 33.3837 28.0245 32.4028C24.2657 30.6135 19.753 31.7238 17.2974 35.0868C13.2155 40.6596 9.5967 46.6959 6.51642 53.1633C-12.2561 92.5824 -5.9124 137.499 19.1176 169.804C23.0702 174.881 31.0187 173.964 33.7866 168.154Z" fill="url(#paint1_linear)"/>
<mask id="mask1" mask-type="alpha" maskUnits="userSpaceOnUse" x="-55" y="98" width="338" height="92">
<rect x="-55" y="98.9768" width="338" height="91.0233" fill="#C4C4C4"/>
</mask>
<g mask="url(#mask1)">
<path opacity="0.7" d="M178.985 176.25C178.509 175.7 178.094 175.215 177.628 174.665L137.439 154.745C136.807 154.433 136.081 154.39 135.428 154.638L107.295 164.975C106.632 165.223 106.093 165.718 105.792 166.387L104.704 168.769C104.403 169.426 104.362 170.181 104.6 170.871L115.463 202.637C115.951 204.07 115.235 205.633 113.857 206.14L97.5823 212.122C97.1159 212.295 96.7116 212.564 96.3799 212.909C126.938 214.332 156.968 202.055 178.415 179.063C179.089 178.308 179.307 177.23 178.985 176.25Z" fill="#D2D4D7"/>
<path opacity="0.7" d="M101.232 212.985C160.588 212.985 208.705 162.949 208.705 101.227C208.705 39.5053 160.588 -10.5302 101.232 -10.5302C41.8762 -10.5302 -6.24121 39.5053 -6.24121 101.227C-6.24121 162.949 41.8762 212.985 101.232 212.985Z" fill="url(#paint2_linear)"/>
</g>
<path opacity="0.8" d="M220.262 150.002C227.763 150.002 233.843 149.172 233.843 148.148C233.843 147.125 227.763 146.294 220.262 146.294C212.761 146.294 206.681 147.125 206.681 148.148C206.681 149.172 212.761 150.002 220.262 150.002Z" fill="url(#paint3_linear)"/>
<path d="M161.921 71.6221C162.627 71.0574 162.739 70.0227 162.171 69.3111C161.604 68.5994 160.57 68.4804 159.864 69.0451C159.158 69.6098 159.045 70.6445 159.613 71.3562C160.181 72.0678 161.214 72.1869 161.921 71.6221Z" fill="#FAD1B7"/>
<path d="M181.381 57.324C181.381 57.324 179.949 66.4862 173.821 69.3642C166.917 72.598 160.39 70.2805 153.023 68.6744L153.637 65.8718C159.216 67.0899 168.069 66.7018 172.076 62.6597C173.175 61.5494 173.961 55.0496 174.165 54.1334L174.392 53.2172C181.683 50.7165 181.381 57.324 181.381 57.324Z" fill="#253655"/>
<path d="M179.314 50.0374C177.612 50.2314 176.072 49.0026 175.878 47.2995L175.684 45.618C175.49 43.9149 176.718 42.3735 178.42 42.1795C180.121 41.9854 181.662 43.2142 181.855 44.9173L182.049 46.5989C182.243 48.2912 181.015 49.8433 179.314 50.0374Z" fill="#FAD1B7"/>
<path d="M182.178 45.5101C182.178 45.5101 183.007 44.8525 183.222 45.6825C183.438 46.5125 182.899 47.6982 182.049 47.3209C181.208 46.9437 181.758 45.9304 182.178 45.5101Z" fill="#FAD1B7"/>
<path d="M175.081 46.8253L174.693 44.0767C174.37 41.8346 175.943 39.7327 178.183 39.4093C180.423 39.0859 182.523 40.6597 182.846 42.9017L183.267 45.9199" fill="#FAD1B7"/>
<path d="M183.137 45.0682L183.244 45.8336C183.567 48.0756 181.995 50.1775 179.755 50.5009C177.515 50.8243 175.414 49.2505 175.091 47.0085L174.94 45.9845" fill="#CA851A"/>
<path d="M177.008 47.0301C177.008 47.0301 177.848 47.8925 178.882 46.7714L178.365 45.963L176.448 46.3726L177.008 47.0301Z" fill="#FAD1B7"/>
<path d="M174.876 46.1137C174.876 46.1137 175.878 44.7555 177.967 45.3915C177.967 45.3915 178.85 44.3783 181.112 45.2514C181.112 45.2514 180.735 46.1353 180.24 46.3077C179.604 46.5341 178.775 46.0706 178.204 46.0167C178.204 46.0167 177.138 47.0515 175.63 46.9653" fill="#CA851A"/>
<path d="M171.785 121.546L172.636 125.297L170.59 125.642L169.566 122.063L171.785 121.546Z" fill="#FDB419"/>
<path d="M171.107 77.1145C171.107 77.1145 164.117 90.2434 163.525 100.16C163.029 108.492 168.544 121.061 168.544 121.061L173.541 120.684C173.541 120.684 172.238 108.029 172.981 100.958C173.821 92.9705 183.083 81.5663 183.083 81.5663L171.107 77.1145Z" fill="#008EC0"/>
<path d="M165.269 126.935C165.205 126.817 165.248 126.687 165.366 126.601C165.485 126.515 168.242 124.618 172.367 124.596C172.593 124.596 172.776 124.726 172.776 124.898L172.787 126.795C172.787 126.968 172.604 127.097 172.378 127.097L165.646 127.129C165.474 127.129 165.323 127.054 165.269 126.935Z" fill="#253655"/>
<path d="M188.36 122.419L189.276 126.148L187.24 126.526L186.152 122.969L188.36 122.419Z" fill="#FDB419"/>
<path d="M176.072 75.5083C176.072 75.5083 178.883 91.7955 182.545 101.033C185.615 108.794 192.303 116.426 192.303 116.426L197.16 114.927C197.16 114.927 193.768 104.493 191.452 97.7671C188.846 90.1786 187.823 74.6567 187.823 74.6567L176.072 75.5083Z" fill="#00A4DF"/>
<path d="M181.941 127.916C181.877 127.797 181.909 127.668 182.038 127.582C182.157 127.496 184.882 125.545 188.996 125.448C189.222 125.448 189.405 125.577 189.416 125.739L189.459 127.625C189.459 127.797 189.287 127.938 189.061 127.938L182.329 128.099C182.157 128.11 182.006 128.035 181.941 127.916Z" fill="#253655"/>
<path d="M170.094 79.5072C168.177 77.9982 170.826 71.8002 170.417 68.8575C170.126 66.7448 169.986 63.3171 169.922 60.4283C169.857 57.2916 171.612 54.4028 174.434 53.0231L175.77 52.3656L178.279 53.3141L183.589 51.4493L181.596 52.15C198.506 54.7477 190.913 71.2397 188.748 80.2941C188.425 81.6307 184.343 81.0487 183.04 81.081C179.992 81.1349 172.657 81.5229 170.094 79.5072Z" fill="#2E4369"/>
<path d="M191.215 60.0188C191.215 60.0188 189.783 69.181 183.655 72.059C176.751 75.2927 170.224 72.9752 162.857 71.3691L163.471 68.5665C169.05 69.7846 177.903 69.3965 181.91 65.3544C182.987 64.2765 183.138 61.8728 183.396 60.4715C183.633 59.1457 183.45 57.3887 184.258 56.2353C185.066 55.0712 187.553 55.1574 188.76 55.6317C190.472 56.2892 191.291 58.2618 191.215 60.0188Z" fill="#253655"/>
<path d="M163.88 67.909C164.257 68.0384 164.558 68.351 164.677 68.7606C164.86 69.4289 164.472 70.1295 163.804 70.3128C163.136 70.496 162.436 70.108 162.253 69.4397C162.07 68.7714 162.458 68.0707 163.126 67.8875C163.384 67.812 163.643 67.8228 163.88 67.909Z" fill="#FAD1B7"/>
<path d="M182.265 53.9825L176.74 54.3382C175.63 54.4136 174.661 53.5621 174.586 52.4411L174.564 52.0961C174.489 50.9859 175.34 50.0158 176.46 49.9403L181.985 49.5846C183.094 49.5092 184.064 50.3607 184.139 51.4817L184.16 51.8266C184.225 52.9477 183.374 53.907 182.265 53.9825Z" fill="#2E4369"/>
<path d="M156.555 71.1645H176.276C176.847 71.1645 177.31 70.701 177.31 70.1297C177.31 69.5584 176.847 69.0948 176.276 69.0948H156.555C155.985 69.0948 155.521 69.5584 155.521 70.1297C155.521 70.701 155.985 71.1645 156.555 71.1645Z" fill="#8EA3B2"/>
<path d="M168.898 71.2936L165.237 59.1133C164.978 58.2402 164.17 57.6473 163.266 57.6473H150.546C149.124 57.6473 148.133 59.0486 148.597 60.396L151.86 69.7738C152.151 70.593 152.915 71.1535 153.788 71.1643L168.898 71.2936Z" fill="#8EA3B2"/>
<path d="M217.472 138.792H42.876V104.558C42.876 101.734 45.1593 99.4485 47.9811 99.4485H212.378C215.199 99.4485 217.483 101.734 217.483 104.558V138.792H217.472Z" fill="#E2E6E8"/>
<path d="M85.8174 87.9691C85.0204 87.9799 84.288 87.8613 83.5664 87.7751L83.588 86.2013C84.2019 86.0719 84.8158 85.9641 85.365 85.7809C85.5481 86.6109 85.6989 87.3547 85.8174 87.9691Z" fill="#334364"/>
<path d="M90.1045 84.0346C90.1045 84.2394 90.1045 84.4334 90.0937 84.6167C90.083 84.8215 90.0614 85.037 89.986 85.285C89.8999 85.7161 89.6737 86.1365 89.4152 86.5246C89.2536 86.7186 89.049 86.9234 88.8552 87.0851C88.7259 87.1929 88.5967 87.2791 88.4674 87.3546C87.8104 87.7318 87.2073 87.8612 86.6365 87.9258C86.5072 87.9474 86.3995 87.9582 86.2703 87.9582H86.2595C86.1087 87.9797 85.958 87.9797 85.8072 87.9797C85.7749 87.818 85.7426 87.624 85.6995 87.4408C85.5918 86.9449 85.4841 86.3952 85.3441 85.7916C85.581 85.7054 85.8072 85.6299 86.0118 85.5221C86.3565 85.3712 86.6257 85.1556 86.7119 84.9939C86.798 84.8107 86.7119 84.8215 86.6257 84.7676C86.5719 84.7137 86.3349 84.3256 86.0011 83.916C85.8933 83.7867 85.7964 83.6681 85.6672 83.5388C85.6025 83.4741 85.5379 83.4094 85.4841 83.3555C85.2148 83.0753 84.9132 82.8058 84.5901 82.5255C84.7194 83.0645 84.8379 83.5819 84.9671 84.0993V84.1101C85.0425 84.4442 85.1071 84.7676 85.1825 85.0802C85.2364 85.3173 85.2902 85.5544 85.3333 85.7808C85.0748 85.867 84.8055 85.9209 84.5363 85.9964C84.2132 86.0611 83.8901 86.1365 83.567 86.1904V86.4599L83.5454 87.7642C84.127 87.8504 84.7086 87.9258 85.3333 87.9474C85.4841 87.9582 85.6456 87.9582 85.7964 87.9582C85.8287 88.1414 85.861 88.3139 85.8933 88.4648V88.4756C85.9687 89.0038 86.0118 89.381 85.9903 89.5427C85.8718 90.502 85.1179 91.041 83.9978 91.332H83.987C83.6639 91.4183 83.3193 91.4722 82.9423 91.5153C81.4883 91.677 79.6789 91.6123 77.8695 91.5045C77.5787 91.4937 77.2772 91.4722 76.9864 91.4506C76.1894 91.4075 75.4139 91.3644 74.66 91.3428C72.3229 91.2889 68.4995 90.9763 66.0762 90.7607C66.0654 90.7607 66.0654 90.7607 66.0546 90.7607C65.7638 90.7284 65.4838 90.7068 65.2468 90.6853C65.2361 90.6853 65.2361 90.6853 65.2253 90.6853C64.3637 90.5991 63.8252 90.5452 63.8252 90.5452C63.8036 88.3139 63.9975 86.2659 64.3529 84.4011V84.3903C64.4714 83.722 64.6006 83.1184 64.773 82.504V82.4932C64.9991 81.5123 65.2792 80.5853 65.5807 79.723C65.3438 79.7661 65.1068 79.7876 64.8699 79.82C64.5899 79.8523 64.3098 79.8739 64.0298 79.8954H64.019C63.7067 79.9278 63.3944 79.9385 63.0713 79.9385C61.5419 80.0032 59.991 79.8954 58.4939 79.5828C58.4293 79.5721 58.3539 79.5505 58.3001 79.5397C58.1062 79.4858 57.9016 79.4319 57.7185 79.3888C56.4691 79.0223 55.2952 78.4942 54.2181 77.8582C54.0027 77.7181 53.7981 77.5995 53.5827 77.4486C53.2273 77.2222 52.8934 76.9743 52.5703 76.7156L53.3996 75.3682C54.5628 75.7886 55.7367 76.0581 56.8999 76.1551H56.9107C57.2123 76.1874 57.4923 76.1982 57.7939 76.1982C58.0631 76.1982 58.3431 76.1874 58.6232 76.1659C58.9786 76.1227 59.3232 76.0796 59.6787 76.015C60.0448 75.9503 60.3895 75.8748 60.7449 75.7886H60.7557C61.725 75.5407 62.662 75.1958 63.5775 74.7969C63.9544 74.6352 64.3206 74.4412 64.6976 74.2472C64.7191 74.2364 64.7406 74.2256 64.7622 74.2149C65.9038 73.6004 66.9916 72.8675 68.0256 72.0914C68.5964 71.6818 69.1457 71.2183 69.6626 70.7548C69.7919 70.647 69.9103 70.5392 70.0396 70.4206C70.3735 70.1404 70.675 69.8278 70.9874 69.526C71.2566 69.2457 71.612 68.89 71.7521 68.6852L71.7628 68.7067C71.8921 68.5666 72.0213 68.4373 72.1613 68.3079C72.2906 68.1786 72.4198 68.0708 72.5598 67.9522L72.5814 66.3785C72.5921 65.8503 72.926 65.3976 73.3999 65.2035C73.5507 65.1497 73.7122 65.1173 73.8846 65.1173L78.8604 65.1604C79.0112 65.1604 79.162 65.1928 79.2912 65.2467C79.5389 65.3329 79.7436 65.4946 79.8836 65.7102C80.0343 65.915 80.1205 66.1737 80.1205 66.4539C80.1097 66.9821 80.0236 67.5642 80.099 68.0816C80.1097 68.1893 80.1313 68.2971 80.1636 68.4049C80.239 68.7067 80.3467 68.987 80.4759 69.2673L80.8529 70.011C81.1329 70.2913 81.4022 70.5715 81.6607 70.8518C81.8114 71.0027 81.9622 71.1751 82.1022 71.3261C82.8023 72.0806 83.47 72.8459 84.1486 73.6436C84.3101 73.8376 84.4824 74.0532 84.6332 74.2472C84.8055 74.4412 84.9779 74.646 85.1287 74.8508C85.5272 75.3251 85.8933 75.8209 86.2703 76.3168C86.4319 76.5216 86.5934 76.7372 86.7334 76.9527C87.0996 77.4378 87.4335 77.9444 87.7781 78.4726C87.8535 78.5912 87.9289 78.699 87.9935 78.8283C88.1443 79.0547 88.2843 79.281 88.4136 79.5182C88.7474 80.0679 89.0598 80.65 89.3398 81.2859C89.4583 81.5446 89.566 81.8249 89.6737 82.1159C89.7814 82.3962 89.8676 82.698 89.9429 83.0106C90.0183 83.3124 90.0614 83.6897 90.1045 84.0346Z" fill="#334364"/>
<path d="M85.8174 87.9691C85.0204 87.9799 84.288 87.8613 83.5664 87.7751L83.588 86.2013C84.2019 86.0719 84.8158 85.9641 85.365 85.7809C85.5481 86.6109 85.6989 87.3547 85.8174 87.9691Z" fill="#2E4369"/>
<path d="M82.3823 74.0425L79.959 77.5026H80.8745L83.287 74.0425H82.3823Z" fill="#485DC3"/>
<path d="M82.1015 71.3477L80.0229 74.3228H79.1074L81.5199 70.8627H81.66C81.8107 71.0244 81.9507 71.186 82.1015 71.3477Z" fill="#485DC3"/>
<path d="M80.4755 69.2781L79.1723 71.1429H78.2568L80.1632 68.4158C80.2385 68.7176 80.3463 68.9978 80.4755 69.2781Z" fill="#485DC3"/>
<path d="M79.8834 65.7209L78.3217 67.963H77.3955L79.291 65.2574C79.5388 65.3437 79.7434 65.5054 79.8834 65.7209Z" fill="#485DC3"/>
<path d="M84.8911 79.8308L82.4678 83.2801H83.3832L85.7957 79.8308H84.8911Z" fill="#485DC3"/>
<path d="M84.0189 76.6617L81.6172 80.1218H82.5219L84.9452 76.6617H84.0189Z" fill="#485DC3"/>
<path d="M86.734 76.9635L85.9262 78.1169H85.0215L86.2709 76.3275C86.4324 76.5323 86.594 76.7371 86.734 76.9635Z" fill="#485DC3"/>
<path d="M85.1285 74.8617L85.0747 74.9371H84.1592L84.6223 74.2581C84.8054 74.4629 84.9777 74.6569 85.1285 74.8617Z" fill="#485DC3"/>
<path d="M90.0943 84.6168C90.0835 84.8216 90.062 85.0372 89.9866 85.2851C89.9004 85.7163 89.6742 86.1367 89.4158 86.5247C89.2542 86.7188 89.0496 86.9236 88.8557 87.0853H88.3818L90.0943 84.6168Z" fill="#485DC3"/>
<path d="M89.6854 82.1159L88.436 83.916H87.5098L89.3407 81.2859C89.4592 81.5446 89.5777 81.8248 89.6854 82.1159Z" fill="#485DC3"/>
<path d="M88.4235 79.5182L87.5727 80.7363H86.668L87.9927 78.8284C88.1543 79.0547 88.2943 79.2811 88.4235 79.5182Z" fill="#485DC3"/>
<path d="M79.766 82.3099L77.3535 85.77H78.2582L80.6815 82.3099H79.766Z" fill="#485DC3"/>
<path d="M78.9135 79.1301L76.4902 82.601H77.4057L79.8182 79.1301H78.9135Z" fill="#485DC3"/>
<path d="M78.0531 75.9719L75.6406 79.4213H76.5453L78.9686 75.9719H78.0531Z" fill="#485DC3"/>
<path d="M77.2016 72.7921L74.7783 76.2522H75.6938L78.1063 72.7921H77.2016Z" fill="#485DC3"/>
<path d="M75.5111 84.2179L73.1094 87.6779H74.0141L76.4374 84.2179H75.5111Z" fill="#485DC3"/>
<path d="M74.6704 81.0596L72.2471 84.5089H73.1625L75.5751 81.0596H74.6704Z" fill="#485DC3"/>
<path d="M73.7983 77.8798L71.3965 81.3291H72.3012L74.7245 77.8798H73.7983Z" fill="#485DC3"/>
<path d="M67.1645 56.1815L64.752 59.6309H65.6566L68.0799 56.1815H67.1645Z" fill="#485DC3"/>
<path d="M73.9389 77.8365L71.5371 81.2966H72.4418L74.8651 77.8365H73.9389Z" fill="#485DC3"/>
<path d="M73.0883 74.6677L70.6758 78.1279H71.5912L74.0038 74.6677H73.0883Z" fill="#485DC3"/>
<path d="M72.225 71.4987L69.8232 74.948H70.7279L73.1512 71.4987H72.225Z" fill="#485DC3"/>
<path d="M72.2899 68.3188L69.8774 71.7789H68.9512L69.662 70.7657C69.7912 70.6579 69.9097 70.5501 70.039 70.4315C70.3728 70.1513 70.6744 69.8387 70.9867 69.5369C71.256 69.2566 71.6114 68.9009 71.7514 68.6961L71.7622 68.7177C71.8914 68.5775 72.0207 68.4482 72.1607 68.3188H72.2899Z" fill="#485DC3"/>
<path d="M74.7885 66.3138L72.3652 69.7631H73.2915L75.6932 66.3138H74.7885Z" fill="#485DC3"/>
<path d="M73.3888 65.2144L72.5703 66.3893C72.5811 65.8611 72.915 65.3976 73.3888 65.2144Z" fill="#485DC3"/>
<path d="M76.437 68.9332L74.0137 72.3825H74.9291L77.3524 68.9332H76.437Z" fill="#485DC3"/>
<path d="M67.1215 73.9778L64.6982 77.4271H65.6137L68.0262 73.9778H67.1215Z" fill="#485DC3"/>
<path d="M64.7715 74.2256L64.7503 74.2573H64.708C64.7292 74.2361 64.7503 74.2361 64.7715 74.2256Z" fill="#485DC3"/>
<path d="M71.3432 86.115L68.9199 89.5751H69.8354L72.2479 86.115H71.3432Z" fill="#485DC3"/>
<path d="M70.4701 82.9353L68.0684 86.3954H68.973L71.3963 82.9353H70.4701Z" fill="#485DC3"/>
<path d="M69.6088 79.7769L67.207 83.2262H68.1225L70.535 79.7769H69.6088Z" fill="#485DC3"/>
<path d="M68.7582 76.5972L66.3564 80.0465H67.2611L69.6844 76.5972H68.7582Z" fill="#485DC3"/>
<path d="M64.6437 79.0439L64.0406 79.9171H64.0298C63.7175 79.9494 63.4051 79.9602 63.082 79.9602L63.7175 79.0439H64.6437Z" fill="#485DC3"/>
<path d="M62.8764 75.8857L60.4531 79.3458H61.3686L63.7811 75.8857H62.8764Z" fill="#485DC3"/>
<path d="M60.755 75.7994L60.5073 76.1659H59.5918L59.6887 76.0258C60.0549 75.9611 60.3996 75.8965 60.755 75.7994Z" fill="#485DC3"/>
<path d="M67.7878 88.3571L66.0969 90.7824C66.0861 90.7824 66.0861 90.7824 66.0753 90.7824C65.7845 90.7501 65.5045 90.7285 65.2676 90.7069L66.8508 88.4433L67.7878 88.3571Z" fill="#485DC3"/>
<path d="M66.4096 84.7783L63.9971 88.2384H64.9018L67.3251 84.7783H66.4096Z" fill="#485DC3"/>
<path d="M66.2803 81.6847L64.374 84.4226C64.4925 83.7543 64.6217 83.1506 64.7941 82.5362V82.5255L65.3864 81.6847H66.2803V81.6847Z" fill="#485DC3"/>
<path d="M54.8108 77.0391L54.2292 77.8691C54.0138 77.7289 53.8092 77.6104 53.5938 77.4595L53.8953 77.0391H54.8108Z" fill="#485DC3"/>
<path d="M59.861 77.6642L58.504 79.6044C58.4393 79.5937 58.3639 79.5721 58.3101 79.5613C58.1162 79.5074 57.9116 79.4535 57.7285 79.4104L58.9455 77.6642H59.861V77.6642Z" fill="#485DC3"/>
<path d="M57.8044 76.2089L56.5874 77.9443H55.6719L56.9105 76.1658H56.9212C57.2228 76.1981 57.5028 76.2089 57.8044 76.2089Z" fill="#485DC3"/>
<path d="M72.7528 100.085C71.3096 100.085 69.9202 99.7829 68.5847 99.093C64.9336 97.1851 64.7505 93.3154 64.9121 90.5344C64.9121 90.5344 68.1431 90.6961 79.1395 85.1449L87.8418 92.8411C83.3076 96.3659 77.7932 100.085 72.7528 100.085Z" fill="#CFD1D4"/>
<path d="M50.2435 76.3491C51.1357 76.3491 51.859 75.6252 51.859 74.7322C51.859 73.8393 51.1357 73.1154 50.2435 73.1154C49.3512 73.1154 48.6279 73.8393 48.6279 74.7322C48.6279 75.6252 49.3512 76.3491 50.2435 76.3491Z" fill="#DEAA85"/>
<path d="M76.7699 64.0824C74.5405 64.0393 72.7526 62.2931 72.7957 60.1911L72.8388 58.003C72.8603 57.7335 75.6821 56.7095 77.9115 56.7526L76.9638 54.2734C79.1932 54.3166 80.9811 56.0628 80.938 58.1647L80.8949 60.3528C80.841 62.444 78.9886 64.1255 76.7699 64.0824Z" fill="#DEAA85"/>
<path d="M72.5476 58.693C72.3753 56.3324 74.1632 54.2736 76.5218 54.1011C78.8805 53.9286 80.9377 55.718 81.11 58.0786" fill="#293653"/>
<path d="M67.853 60.0943C69.3931 59.4906 70.5563 58.2079 71.0302 56.6234C71.2994 56.009 71.084 55.4916 71.9241 55.4593C72.3549 55.4485 73.4642 56.4402 73.2165 56.9144C73.4104 56.5372 73.6581 56.1922 73.9489 55.9012C73.2812 53.7993 70.8902 51.1692 68.4884 51.2985C67.1206 51.4171 65.9898 52.4088 65.699 53.7562C65.5913 54.2736 65.6559 54.8341 65.602 55.3622C65.5482 56.1168 65.2143 56.8174 64.665 57.3348C63.9973 57.8414 63.1249 58.0031 62.3171 57.7983C62.2202 57.7768 62.1125 57.8307 62.091 57.9277C62.0802 57.9816 62.0909 58.0462 62.1233 58.0894C62.274 58.3049 62.4464 58.5097 62.6295 58.7038C63.028 59.1134 63.4695 59.4583 63.965 59.7386C65.1712 60.3853 66.5713 60.5147 67.853 60.0943Z" fill="#293653"/>
<path d="M74.8422 58.4342L73.5175 60.4068L72.8282 60.6655C72.8282 60.6655 72.4405 60.8811 72.5482 58.4881C72.6559 56.0951 74.8422 58.4342 74.8422 58.4342Z" fill="#293653"/>
<path d="M73.8184 61.0427C74.4489 61.0427 74.9601 60.5312 74.9601 59.9001C74.9601 59.2691 74.4489 58.7576 73.8184 58.7576C73.1879 58.7576 72.6768 59.2691 72.6768 59.9001C72.6768 60.5312 73.1879 61.0427 73.8184 61.0427Z" fill="#DEAA85"/>
<path d="M80.8421 124.316L81.736 118.323L77.3418 117.967L77.9126 124.478L80.8421 124.316Z" fill="#293653"/>
<path d="M85.4615 128.315C85.5908 128.207 85.6554 128.045 85.6446 127.873C85.6338 127.668 83.9645 124.93 78.9024 122.818C78.687 122.742 78.4501 122.85 78.3532 123.055L77.5777 124.725C77.5238 124.844 77.5023 124.984 77.5454 125.114C77.5777 125.221 77.6639 125.318 77.7716 125.361L85.063 128.358C85.1815 128.412 85.343 128.401 85.4615 128.315Z" fill="#293653"/>
<path d="M85.2998 119.713C85.8168 115.531 86.3445 111.349 86.8615 107.156C87.2492 104.03 87.6369 100.904 88.0354 97.767C88.197 96.4843 88.4662 95.2124 88.617 93.9297C88.7463 92.8194 89.1125 91.4505 88.7463 90.3726C88.5524 89.8013 88.1431 89.3162 87.6692 88.939C85.5475 87.2359 82.0257 87.0095 79.5485 87.9688C78.0299 88.5617 77.4698 90.0492 77.3083 91.5691L73.668 117.913L85.2998 119.713Z" fill="#A4A6A8"/>
<path d="M97.5677 118.603L95.9845 112.761L91.8271 114.184L94.9613 119.929L97.5677 118.603Z" fill="#293653"/>
<path d="M103.556 119.573C103.621 119.422 103.61 119.239 103.513 119.099C103.406 118.926 100.67 117.266 95.2202 117.741C94.9941 117.773 94.8325 117.978 94.8433 118.204L94.9294 120.037C94.9294 120.166 94.9833 120.295 95.0802 120.392C95.1664 120.479 95.2741 120.522 95.3926 120.511L103.222 119.789C103.362 119.789 103.492 119.703 103.556 119.573Z" fill="#293653"/>
<path d="M99.377 111.974L88.1544 86.5353C85.4296 81.3937 77.7181 85.7915 78.7305 85.2418C75.6395 86.8802 76.3719 92.0757 78.0089 95.1693L88.7145 116.997L99.377 111.974Z" fill="#CFD1D4"/>
<path d="M86.4202 86.7833C87.3124 86.7833 88.0357 86.0594 88.0357 85.1664C88.0357 84.2735 87.3124 83.5496 86.4202 83.5496C85.528 83.5496 84.8047 84.2735 84.8047 85.1664C84.8047 86.0594 85.528 86.7833 86.4202 86.7833Z" fill="#DEAA85"/>
<path d="M134.875 80.7901L134.778 80.9517L134.725 81.0272L134.714 81.0488L134.703 81.0595L134.692 81.0811L134.584 81.232C134.509 81.329 134.434 81.4368 134.369 81.5015L134.175 81.7278C134.111 81.8033 134.046 81.8787 133.981 81.9434C133.734 82.1913 133.475 82.45 133.238 82.6548L132.872 82.9782C132.807 83.0321 132.754 83.086 132.689 83.1291L132.506 83.2692L132.14 83.5495C132.021 83.6465 131.892 83.7327 131.773 83.819L131.03 84.3148L130.847 84.4334L130.664 84.5412L130.287 84.7568C130.039 84.8969 129.792 85.0478 129.544 85.1879L128.801 85.576C128.553 85.7053 128.305 85.8347 128.058 85.9532L127.304 86.2982L126.55 86.6431C126.302 86.7509 126.044 86.8479 125.796 86.9557L125.042 87.2575C124.794 87.3545 124.547 87.4623 124.288 87.5485L122.78 88.0767C122.274 88.26 121.768 88.4001 121.262 88.551C120.756 88.7019 120.249 88.8528 119.743 89.0037L118.225 89.3918L117.471 89.5858L117.094 89.6828L116.717 89.769L115.198 90.1032L114.433 90.2649L114.057 90.3511C113.927 90.3726 113.798 90.3942 113.68 90.4266L110.632 90.9763L109.975 88.4109L112.786 87.3437C112.904 87.3006 113.023 87.2575 113.141 87.2144L113.486 87.0743L114.175 86.7832L115.554 86.2011L115.898 86.061L116.232 85.8993L116.911 85.5867L118.257 84.9616C118.698 84.746 119.129 84.5196 119.571 84.2933C120.002 84.0669 120.443 83.8513 120.863 83.6034L122.123 82.8812C122.339 82.7626 122.533 82.6333 122.737 82.5039L123.34 82.1267C123.545 81.9973 123.75 81.8788 123.944 81.7386L124.514 81.329L125.085 80.9302C125.268 80.7901 125.451 80.6499 125.634 80.5098L126.173 80.0894C126.345 79.9493 126.507 79.7984 126.679 79.6475L126.927 79.4319L127.056 79.3241L127.175 79.2163L127.627 78.7744C127.702 78.6989 127.767 78.6235 127.832 78.548L128.025 78.3217L128.122 78.2139C128.155 78.1815 128.187 78.1384 128.219 78.1061L128.381 77.8905C128.51 77.7396 128.575 77.6102 128.661 77.4809C128.682 77.4486 128.693 77.427 128.704 77.3947L128.736 77.3192C128.758 77.2869 128.747 77.2869 128.736 77.2869L128.726 77.2976L128.704 77.3408C128.682 77.3623 128.672 77.3947 128.65 77.4162L134.875 80.7901Z" fill="#66432F"/>
<path d="M130.902 73.3741C130.902 73.3741 126.626 79.1086 124.968 80.1434C124.968 80.1434 130.816 85.0479 130.385 84.4766C130.385 84.4766 138.441 79.2919 138.463 79.6045C138.484 79.8739 138.107 76.9313 138.226 76.6726C140.951 70.895 130.902 73.3741 130.902 73.3741Z" fill="#3C549C"/>
<path d="M116.427 130.967C116.427 130.967 116.523 132.691 116.459 133.467C116.448 133.651 116.319 133.812 116.146 133.877C115.188 134.243 111.828 134.901 108.112 134.146C107.53 134.028 107.692 132.432 109.318 132.066C110.697 131.753 111.623 130.74 111.623 130.74C112.582 129.468 112.84 128.638 112.969 127.409C112.98 127.334 112.98 127.259 112.991 127.194L116.157 127.205L116.427 130.967Z" fill="#253655"/>
<path d="M106.508 91.205C107.391 91.0119 107.95 90.1341 107.755 89.2442C107.561 88.3543 106.688 87.7894 105.805 87.9824C104.921 88.1754 104.362 89.0533 104.557 89.9432C104.751 90.833 105.624 91.398 106.508 91.205Z" fill="#66432F"/>
<path d="M119.915 129.08L107.831 126.073L116.77 96.3981L127.907 97.3466L119.915 129.08Z" fill="#CC8719"/>
<path d="M117.126 95.9563L136.588 87.2899C136.588 87.2899 141.833 85.5329 142.102 85.6407C142.371 85.7485 142.081 85.6407 142.285 85.7054C142.49 85.77 144.288 85.2634 144.288 85.2634L145.796 91.9249C145.796 91.9249 148.812 98.5971 139.183 99.4056L126.636 102.478L119.765 98.3277L117.126 95.9563Z" fill="#FFB619"/>
<path d="M131.547 129.361C131.547 129.361 132.107 130.999 132.247 131.764C132.28 131.948 132.215 132.131 132.064 132.249C131.246 132.864 128.187 134.384 124.396 134.642C123.804 134.686 123.534 133.101 124.999 132.325C126.238 131.657 126.862 130.428 126.862 130.428C127.444 128.951 127.465 128.089 127.261 126.86C127.25 126.784 127.239 126.72 127.218 126.644L130.266 125.814L131.547 129.361Z" fill="#253655"/>
<path d="M122.501 129.522L119.604 96.8941L129.114 95.5468L135.339 127.701L122.501 129.522Z" fill="#FFB619"/>
<path d="M119.873 100.16C119.873 100.16 118.721 96.7971 121.23 95.8377C123.74 94.8892 131.688 90.4266 131.688 90.4266L132.571 90.7823C131.774 90.6422 132.56 89.726 132.259 88.9714L130.805 89.3487C130.805 89.3487 126.432 90.459 122.523 91.9249C119.701 92.9813 117.181 93.3801 116.47 97.6702L119.873 100.16Z" fill="#CC8719"/>
<path d="M135.973 64.4489C136.199 65.0202 136.156 65.6993 135.779 66.249C135.187 67.1221 133.981 67.3485 133.098 66.7449C132.214 66.1412 131.988 64.9448 132.581 64.0717C133.173 63.1986 134.379 62.9722 135.262 63.5758" stroke="#FDB419" stroke-width="4.4875" stroke-miterlimit="10"/>
<path d="M136.093 68.3618C137.86 69.3104 140.089 68.6529 141.048 66.8851L142.254 64.6646C143.212 62.9076 142.545 60.6871 140.768 59.7386C139.001 58.79 136.772 59.4476 135.813 61.2153L134.607 63.4358C133.659 65.1928 134.316 67.4133 136.093 68.3618Z" fill="#66432F"/>
<path d="M141.112 65.2897C141.511 65.3112 141.877 65.4621 142.168 65.6885" stroke="#FDB419" stroke-width="4.4875" stroke-miterlimit="10"/>
<path d="M138.171 57.0222C138.203 57.0114 138.225 56.9898 138.247 56.9575C138.688 56.4293 139.431 56.0628 140.067 56.4832C140.239 56.6018 140.379 56.7635 140.465 56.9467C140.541 57.0976 140.702 57.1946 140.864 57.1515C141.316 57.0545 141.801 57.0761 142.21 57.3024C142.759 57.615 143.126 58.2402 143.126 58.8762C143.136 58.8115 143.222 58.8115 143.287 58.8223C143.578 58.8762 144.073 59.0271 144.278 59.2642C144.569 59.5876 144.676 60.0511 144.569 60.4715C144.558 60.5146 144.547 60.5469 144.569 60.59C144.59 60.6331 144.633 60.6547 144.666 60.6655C145.667 61.129 146.184 62.3039 145.549 63.2632C145.538 63.2848 145.517 63.3063 145.506 63.3279L145.495 63.3387C145.409 63.4573 145.312 63.5543 145.204 63.6513L141.941 66.5724C141.941 66.5724 142.275 66.1951 141.607 66.346C141.273 66.4215 141.111 66.6586 140.778 66.7341C140.659 66.7556 140.53 66.7664 140.444 66.691C140.347 66.6155 140.67 66.5832 140.681 66.4538C140.724 66.0119 141.176 64.5675 141.639 63.3171C141.682 62.7243 141.165 61.9159 140.196 61.6895C137.482 61.0428 136.469 60.1589 136.308 59.9972C135.5 59.469 135.274 58.3803 135.813 57.5827C136.329 56.8174 137.288 56.6449 138.096 57.0006C138.117 57.0114 138.15 57.0222 138.171 57.0222C138.16 57.0222 138.16 57.0222 138.171 57.0222Z" fill="#253655"/>
<path d="M141.381 66.152C141.982 66.152 142.469 65.6694 142.469 65.0741C142.469 64.4788 141.982 63.9962 141.381 63.9962C140.78 63.9962 140.293 64.4788 140.293 65.0741C140.293 65.6694 140.78 66.152 141.381 66.152Z" fill="#66432F"/>
<path d="M145.797 91.9356L143.298 82.0297L132.539 83.3447L131.602 90.9655" fill="#FFB619"/>
<path d="M146.885 85.4466L143.88 72.9861C143.428 72.0591 139.475 71.4015 132.798 72.0591C131.979 72.1453 129.696 73.8376 129.308 76.2737C129.018 78.0953 128.651 85.8347 128.651 85.8347L136.567 85.9964L146.885 85.4466Z" fill="#5B7FF7"/>
<path d="M132.928 68.8754L132.795 72.0631L140.478 72.3843L140.611 69.1966L132.928 68.8754Z" fill="#5B7FF7"/>
<path d="M100.927 99.0607H120.648C121.219 99.0607 121.682 98.5972 121.682 98.0259C121.682 97.4546 121.219 96.9911 120.648 96.9911H100.927C100.357 96.9911 99.8936 97.4546 99.8936 98.0259C99.8936 98.5972 100.357 99.0607 100.927 99.0607Z" fill="#8EA3B2"/>
<path d="M113.259 99.1899L109.597 87.0095C109.338 86.1364 108.531 85.5436 107.626 85.5436H94.9064C93.4847 85.5436 92.4938 86.9449 92.957 88.2923L96.2203 97.6701C96.5111 98.4893 97.2758 99.0498 98.1482 99.0606L113.259 99.1899Z" fill="#8EA3B2"/>
<path d="M141.844 67.1869C142.339 67.5642 142.63 68.1678 142.587 68.8253C142.523 69.8817 141.596 70.6901 140.53 70.6146C139.464 70.55 138.656 69.6338 138.731 68.5774C138.796 67.5211 139.722 66.7126 140.789 66.7881" stroke="#FDB419" stroke-width="4.4875" stroke-miterlimit="10"/>
<path d="M144.783 80.7468C144.751 80.8546 144.729 80.8869 144.708 80.9408C144.686 80.9947 144.665 81.0378 144.654 81.081L144.6 81.2211L144.546 81.3504C144.471 81.5229 144.396 81.6738 144.32 81.8355C144.169 82.1481 144.008 82.4391 143.846 82.7302C143.523 83.3122 143.178 83.862 142.812 84.4009C142.08 85.468 141.294 86.4705 140.432 87.3975C138.73 89.2623 136.781 90.836 134.724 92.1726C133.69 92.8301 132.624 93.423 131.536 93.9619C130.448 94.4793 129.339 94.9644 128.208 95.3632C125.957 96.1824 123.652 96.7645 121.347 97.1633L120.733 94.5871C122.834 93.9296 124.869 93.0888 126.775 92.0864C127.734 91.5906 128.649 91.03 129.533 90.448C130.416 89.8551 131.256 89.2084 132.053 88.5401C133.636 87.1711 135.047 85.6405 136.199 83.9698C136.77 83.1398 137.287 82.2667 137.718 81.3828C137.933 80.9408 138.138 80.4989 138.3 80.0569C138.386 79.8414 138.461 79.615 138.537 79.4102C138.569 79.3024 138.601 79.1946 138.623 79.1084L138.644 79.0329L138.655 78.9683C138.655 78.9467 138.666 78.9251 138.666 78.9144C138.666 78.9036 138.677 78.8713 138.666 78.9144L144.783 80.7468Z" fill="#66432F"/>
<path d="M138.333 77.5994C137.525 79.6906 135.468 82.6333 134.66 83.7866L141.639 86.5245C141.639 86.5245 145.99 80.3481 146.809 77.5348C146.884 77.2761 146.927 76.9958 146.927 76.7155C146.938 73.913 143.718 72.7381 141.865 73.6543C140.25 74.4735 138.99 75.8963 138.333 77.5994Z" fill="#3C549C"/>
<path d="M119.081 98.4191C119.918 98.078 120.319 97.1175 119.976 96.2739C119.633 95.4303 118.676 95.023 117.839 95.3641C117.001 95.7053 116.6 96.6657 116.944 97.5093C117.287 98.3529 118.244 98.7602 119.081 98.4191Z" fill="#66432F"/>
<path d="M222.06 71.8435L222.092 72.0052C222.07 71.9944 222.06 71.9729 222.038 71.9729C222.049 71.9297 222.06 71.8866 222.06 71.8435Z" fill="#4A54A4"/>
<path d="M222.33 80.2511C223.557 80.2511 224.667 79.3995 224.936 78.1492C225.184 77.0066 224.667 75.8533 223.654 75.2712L223.364 75.7886C224.15 76.2413 224.548 77.136 224.354 78.0198C224.117 79.1408 223.008 79.8523 221.888 79.6043C220.768 79.3672 220.057 78.257 220.305 77.1359C220.553 76.0149 221.651 75.3143 222.771 75.5514L222.9 74.9694C221.457 74.6568 220.046 75.573 219.734 77.0174C219.422 78.451 220.337 79.8738 221.78 80.1864C221.953 80.2295 222.147 80.2511 222.33 80.2511Z" fill="#FDB419"/>
<path d="M214.921 72.7382L218.917 73.3957C218.917 73.3957 217.818 75.0449 216.547 74.6784C215.276 74.3011 214.921 72.7382 214.921 72.7382Z" fill="#485CC5"/>
<path d="M219.261 73.4711L223.289 73.9561C223.289 73.9561 222.266 75.6592 220.973 75.3358C219.681 75.0232 219.261 73.4711 219.261 73.4711Z" fill="#485CC5"/>
<path d="M209.901 103.178C210.009 106.919 210.214 110.465 210.451 114.087C210.688 117.687 210.989 121.287 211.323 124.866C211.657 128.455 212.066 132.034 212.519 135.602C212.96 139.17 213.509 141.239 214.091 144.775L218.518 145.626C218.711 142.112 219.239 138.954 219.562 135.451C219.875 131.948 220.241 128.455 220.672 124.974C221.102 121.492 221.566 118.01 222.093 114.55C222.621 111.112 223.192 107.587 223.817 104.278L209.901 103.178Z" fill="#835739"/>
<path d="M215.911 105.625L225.884 145.626L230.192 144.882L229.729 103.599L215.911 105.625Z" fill="#835739"/>
<path d="M219.067 79.1948C216.848 78.8606 215.297 76.7803 215.631 74.5598L215.987 72.1453C216.32 69.9248 218.399 68.3726 220.618 68.7068C222.836 69.0409 224.387 71.1213 224.054 73.3418L223.698 75.7563C223.364 77.9768 221.286 79.5289 219.067 79.1948Z" fill="#835739"/>
<path d="M224.053 73.3955C224.387 71.1751 222.836 69.0839 220.618 68.7605C218.733 68.4803 216.967 69.5582 216.267 71.2397C216.428 71.1104 217.204 71.3475 217.225 71.8541C217.257 72.8566 216.977 73.3093 217.021 73.6866C217.139 74.5597 217.893 74.3872 217.861 75.0016C217.602 80.1109 223.299 78.494 223.612 76.3706L224.053 73.3955Z" fill="#66432F"/>
<path d="M218.69 145.335V148.569H217.764L217.214 146.79L215.761 148.483L209.492 148.547L208.717 148.558C208.717 148.558 214.307 146.208 214.059 144.645" fill="#FDB419"/>
<path d="M230.181 144.861V148.095H229.255L228.706 146.316L227.252 148.008L220.983 148.073L220.208 148.084C220.208 148.084 225.798 145.734 225.55 144.171" fill="#FDB419"/>
<path d="M215.479 74.2256C214.682 74.549 214.058 75.2388 213.864 76.1443C213.552 77.5779 214.467 79.0007 215.91 79.3133C216.104 79.3564 216.287 79.378 216.47 79.378C217.698 79.378 218.807 78.5264 219.077 77.2761C219.249 76.4784 219.055 75.6592 218.538 75.0232L218.075 75.4005C218.474 75.8963 218.624 76.5323 218.495 77.1467C218.258 78.2677 217.149 78.9792 216.029 78.7312C214.909 78.4941 214.198 77.3839 214.445 76.2628C214.585 75.6053 215.027 75.0879 215.598 74.8184" fill="#FDB419"/>
<path d="M203.881 109.592C203.849 111.414 204.538 113.548 205.561 116.038C205.561 116.049 205.561 116.049 205.561 116.049C205.561 116.189 205.615 116.307 205.712 116.393C206.606 118.528 207.715 120.921 208.824 123.583C208.911 123.799 209.008 124.014 209.094 124.241C209.718 125.782 210.343 127.41 210.903 129.134C210.957 129.285 211 129.425 211.054 129.576H211.711H213.617H214.371H216.256H217.021H218.927H219.487H219.638H219.681H221.566H222.33H224.237H224.99H226.875H227.64L230.623 129.468C230.16 124.941 233.962 115.175 234.985 111.079C235.017 111.133 235.05 111.187 235.093 111.22C235.125 110.961 235.168 110.702 235.201 110.454C235.168 110.476 235.147 110.508 235.114 110.53C235.201 110.131 235.244 109.818 235.244 109.592C235.233 108.945 235.201 108.32 235.157 107.716V107.662C235.104 107.016 235.039 106.39 234.942 105.798C234.834 105.711 234.759 105.604 234.759 105.453C234.759 105.593 234.834 105.711 234.942 105.798C234.91 105.604 234.877 105.399 234.845 105.205C234.501 103.351 233.93 101.712 233.025 100.16C233.025 100.16 233.025 100.16 233.025 100.149C233.025 99.9662 232.917 99.8153 232.767 99.7398C231.883 98.3278 230.731 96.9696 229.234 95.5575C228.9 95.2449 228.62 94.9323 228.405 94.6413C227.769 93.779 227.586 92.6472 227.974 91.6447C228.394 90.556 228.62 89.3703 228.62 88.1308C228.62 86.848 228.329 85.4468 227.758 84.2934C227.468 83.7006 226.994 83.2155 226.488 82.7951C225.12 81.6741 223.181 81.7172 221.512 81.6633C220.93 81.6418 220.338 81.631 219.788 81.631C219.875 81.631 219.961 81.631 220.036 81.631H219.788H219.627H219.552H219.142C219.282 81.631 219.433 81.631 219.584 81.631C219.358 81.631 219.11 81.6418 218.862 81.6418C218.291 81.6525 217.688 81.6633 217.117 81.6849C216.805 81.6957 216.504 81.7064 216.224 81.7172C215.319 81.7495 214.457 81.6741 213.639 82.116C212.852 82.5364 212.206 83.1939 211.711 83.9269C211.549 84.1641 211.399 84.4228 211.269 84.703C210.817 85.6408 210.558 86.7726 210.558 88.1415C210.558 89.3811 210.795 90.5668 211.205 91.6555C211.226 91.6986 211.226 91.7417 211.237 91.7849C211.334 92.0759 211.377 92.3777 211.388 92.6903C211.399 93.3909 211.205 94.0808 210.774 94.6629C210.558 94.9539 210.289 95.2557 209.945 95.5791C208.415 97.0127 207.252 98.3924 206.369 99.826C206.207 100.085 206.067 100.343 205.927 100.602C205.97 100.624 206.024 100.645 206.078 100.645C206.024 100.645 205.981 100.624 205.927 100.602C204.495 103.135 203.956 105.938 203.881 109.592ZM234.705 105.442C234.705 105.366 234.727 105.313 234.759 105.248C234.727 105.313 234.705 105.377 234.705 105.442ZM205.69 102.478C205.604 102.564 205.55 102.682 205.55 102.801C205.561 102.682 205.615 102.564 205.69 102.478ZM205.841 111.176C205.895 111.198 205.96 111.209 206.024 111.209C205.96 111.22 205.895 111.198 205.841 111.176ZM206.024 112.944C205.96 112.944 205.895 112.955 205.841 112.977C205.895 112.966 205.96 112.944 206.024 112.944ZM205.841 110.325C205.895 110.303 205.96 110.293 206.024 110.293C205.96 110.282 205.895 110.293 205.841 110.325ZM205.841 108.536C205.895 108.557 205.96 108.568 206.024 108.568C205.96 108.579 205.895 108.568 205.841 108.536ZM205.841 107.684C205.895 107.662 205.96 107.652 206.024 107.652C205.96 107.652 205.895 107.662 205.841 107.684ZM205.841 105.022C205.895 105 205.96 104.989 206.024 104.989C205.96 104.978 205.895 105 205.841 105.022ZM205.841 103.243C205.895 103.265 205.96 103.275 206.024 103.275C205.96 103.275 205.895 103.265 205.841 103.243ZM205.841 113.839C205.895 113.86 205.96 113.871 206.024 113.871C205.96 113.882 205.895 113.86 205.841 113.839ZM206.024 115.585C205.96 115.585 205.906 115.596 205.852 115.617C205.895 115.596 205.96 115.585 206.024 115.585ZM206.024 102.348C205.96 102.348 205.895 102.359 205.841 102.381C205.895 102.359 205.96 102.348 206.024 102.348ZM206.487 102.812C206.487 102.683 206.433 102.564 206.347 102.488C206.444 102.564 206.487 102.683 206.487 102.812ZM206.487 110.745C206.487 110.745 206.487 110.756 206.487 110.745C206.487 110.756 206.487 110.745 206.487 110.745ZM209.115 99.9662C209.04 99.8045 208.878 99.6859 208.684 99.6859C208.878 99.6859 209.04 99.7937 209.115 99.9662ZM208.684 97.972C208.878 97.972 209.04 97.8535 209.115 97.6918C209.04 97.8535 208.878 97.972 208.684 97.972ZM209.115 100.333C209.04 100.494 208.878 100.613 208.684 100.613C208.878 100.613 209.04 100.494 209.115 100.333ZM209.115 105.269C209.04 105.108 208.878 104.989 208.684 104.989C208.878 104.978 209.04 105.097 209.115 105.269ZM208.684 103.275C208.878 103.275 209.04 103.157 209.115 102.995C209.04 103.157 208.878 103.275 208.684 103.275ZM209.115 105.625C209.094 105.679 209.061 105.733 209.018 105.776C209.051 105.733 209.094 105.679 209.115 105.625ZM209.115 107.932C209.04 107.77 208.878 107.652 208.684 107.652C208.878 107.652 209.04 107.759 209.115 107.932ZM209.072 108.352C208.986 108.482 208.846 108.579 208.684 108.579C208.846 108.579 208.986 108.482 209.072 108.352ZM209.115 110.573C209.04 110.411 208.878 110.293 208.684 110.293C208.878 110.282 209.04 110.4 209.115 110.573ZM209.072 110.993C208.986 111.123 208.846 111.22 208.684 111.22C208.846 111.22 208.986 111.123 209.072 110.993ZM209.115 113.235C209.04 113.074 208.878 112.955 208.684 112.955C208.878 112.944 209.04 113.063 209.115 113.235ZM209.115 113.591C209.04 113.753 208.878 113.871 208.684 113.871C208.878 113.882 209.04 113.763 209.115 113.591ZM209.115 115.865C209.04 115.704 208.878 115.585 208.684 115.585C208.878 115.585 209.04 115.704 209.115 115.865ZM209.115 116.232C209.04 116.393 208.878 116.512 208.684 116.512C208.878 116.512 209.04 116.404 209.115 116.232ZM209.115 118.539C209.04 118.377 208.878 118.258 208.684 118.258C208.878 118.247 209.04 118.366 209.115 118.539ZM209.115 118.894C209.04 119.056 208.878 119.174 208.684 119.174C208.878 119.174 209.04 119.067 209.115 118.894ZM209.115 97.3253C209.04 97.1636 208.878 97.045 208.684 97.045C208.878 97.045 209.04 97.1636 209.115 97.3253ZM209.148 102.812C209.148 102.553 208.943 102.348 208.684 102.348C208.943 102.348 209.148 102.553 209.148 102.812ZM209.148 110.756C209.148 110.756 209.148 110.745 209.148 110.756C209.148 110.745 209.148 110.756 209.148 110.756ZM209.148 121.352C209.148 121.287 209.137 121.222 209.115 121.169C209.04 121.007 208.878 120.888 208.684 120.888C208.878 120.888 209.04 121.007 209.115 121.169C209.137 121.222 209.148 121.287 209.148 121.352ZM208.954 123.637C209.072 123.723 209.148 123.853 209.148 124.014C209.148 123.863 209.072 123.723 208.954 123.637ZM208.684 121.815C208.878 121.815 209.04 121.697 209.115 121.535C209.04 121.697 208.878 121.815 208.684 121.815ZM208.221 121.352C208.221 121.287 208.232 121.222 208.254 121.169C208.232 121.222 208.221 121.287 208.221 121.352ZM208.221 102.812C208.221 102.683 208.275 102.564 208.361 102.488C208.275 102.564 208.221 102.683 208.221 102.812ZM205.852 116.48C205.906 116.501 205.96 116.512 206.024 116.512C205.96 116.512 205.906 116.501 205.852 116.48ZM205.561 110.756C205.561 110.756 205.561 110.745 205.561 110.756C205.561 110.745 205.561 110.756 205.561 110.756Z" fill="#A7E2F9"/>
<path d="M217.494 75.6916C218.137 75.6916 218.658 75.1704 218.658 74.5274C218.658 73.8845 218.137 73.3633 217.494 73.3633C216.852 73.3633 216.331 73.8845 216.331 74.5274C216.331 75.1704 216.852 75.6916 217.494 75.6916Z" fill="#835739"/>
<path d="M215.599 74.8293C215.997 74.6461 216.45 74.5814 216.913 74.6784L217.042 74.0963C216.504 73.9778 215.965 74.0317 215.491 74.2257" fill="#FDB419"/>
<path d="M210.892 88.5941C210.86 88.5187 210.924 88.5941 210.967 88.648C211.01 88.6912 211.053 88.7666 211.107 88.8313C211.204 88.9714 211.301 89.1115 211.387 89.284C211.581 89.5966 211.732 89.9631 211.904 90.308C212.184 91.0302 212.464 91.7955 212.594 92.5932C212.906 94.1777 212.863 95.87 212.497 97.5839L212.13 98.8666C212.023 99.3085 211.797 99.7074 211.635 100.128C211.323 101.001 210.795 101.788 210.332 102.618C209.836 103.437 209.201 104.191 208.641 105L206.627 107.22L206.519 107.339C205.959 107.953 206.002 108.913 206.627 109.473C207.165 109.958 207.952 109.991 208.522 109.581L211.226 107.641C212.055 106.886 212.949 106.186 213.746 105.356C214.511 104.493 215.351 103.674 215.997 102.672C216.331 102.176 216.719 101.723 216.999 101.173L217.871 99.5565C218.916 97.3144 219.573 94.8029 219.659 92.1944C219.724 90.8901 219.594 89.5858 219.39 88.2708C219.25 87.624 219.12 86.9665 218.916 86.309C218.83 85.9856 218.711 85.6515 218.582 85.3173C218.517 85.1556 218.463 84.9832 218.377 84.7999C218.302 84.6167 218.237 84.4658 218.076 84.164C216.859 82.1806 214.263 81.5662 212.292 82.7842C210.289 84.013 209.675 86.6108 210.892 88.5941Z" fill="#83563C"/>
<path d="M206.087 114.712L206.432 112.179C206.497 111.704 206.174 111.273 205.711 111.187L200.369 110.26C199.862 110.174 199.399 110.53 199.345 111.036L199.098 113.3" stroke="#5D7079" stroke-width="8.188" stroke-miterlimit="10"/>
<path d="M190.989 129.77L208.566 132.54C209.525 132.691 210.429 132.034 210.58 131.074L212.788 116.997C212.939 116.038 212.282 115.132 211.323 114.981L193.746 112.211C192.788 112.06 191.883 112.718 191.732 113.677L189.524 127.754C189.374 128.714 190.031 129.619 190.989 129.77Z" fill="#6F828D"/>
<path d="M211.97 122.236L190.936 118.776" stroke="#5D7079" stroke-width="8.188" stroke-miterlimit="10"/>
<path d="M207.78 123.098C208.157 123.163 208.512 122.904 208.577 122.527L208.954 120.274C209.018 119.896 208.76 119.541 208.383 119.476C208.006 119.411 207.651 119.67 207.586 120.047L207.209 122.3C207.145 122.677 207.403 123.033 207.78 123.098Z" fill="#5D7079"/>
<path d="M194.79 121.039C195.135 121.093 195.469 120.856 195.533 120.511L195.878 118.42C195.932 118.075 195.695 117.741 195.35 117.676C195.006 117.622 194.672 117.859 194.607 118.204L194.263 120.295C194.198 120.651 194.435 120.985 194.79 121.039Z" fill="#5D7079"/>
<path d="M204.419 112.556C205.388 112.556 206.174 111.769 206.174 110.799C206.174 109.828 205.388 109.042 204.419 109.042C203.449 109.042 202.663 109.828 202.663 110.799C202.663 111.769 203.449 112.556 204.419 112.556Z" fill="#83563C"/>
</g>
<defs>
<linearGradient id="paint0_linear" x1="42.8748" y1="137.38" x2="217.25" y2="137.38" gradientUnits="userSpaceOnUse">
<stop stop-color="#F2F4F6"/>
<stop offset="0.1369" stop-color="#E9ECEE"/>
<stop offset="0.3653" stop-color="#E2E7E9"/>
<stop offset="1" stop-color="#E0E5E7"/>
</linearGradient>
<linearGradient id="paint1_linear" x1="105.497" y1="4.97921" x2="107.706" y2="120.861" gradientUnits="userSpaceOnUse">
<stop stop-color="#D2D4D7"/>
<stop offset="1" stop-color="white" stop-opacity="0"/>
</linearGradient>
<linearGradient id="paint2_linear" x1="102.819" y1="-8.6179" x2="99.3766" y2="212.106" gradientUnits="userSpaceOnUse">
<stop stop-color="#E0E5E7"/>
<stop offset="0.4739" stop-color="#E0E5E7" stop-opacity="0.1301"/>
</linearGradient>
<linearGradient id="paint3_linear" x1="206.687" y1="148.145" x2="233.843" y2="148.145" gradientUnits="userSpaceOnUse">
<stop stop-color="#F2F4F6"/>
<stop offset="1" stop-color="#E0E5E7"/>
</linearGradient>
</defs>
</svg>
