<svg xmlns="http://www.w3.org/2000/svg" xmlns:xlink="http://www.w3.org/1999/xlink" viewBox="0 0 360 196"><defs><style>.cls-1{fill:#dbf4fe;}.cls-14,.cls-2{fill:none;}.cls-3{fill:url(#linear-gradient);}.cls-4{fill:url(#linear-gradient-2);}.cls-5{fill:#d3d5d8;}.cls-6{fill:#5d7077;}.cls-7{fill:#845739;}.cls-8{fill:#253655;}.cls-9{fill:#829ca9;}.cls-10{fill:#37517e;}.cls-11{fill:#00b9ff;}.cls-12{fill:#2ed06e;}.cls-13{fill:#27b35f;}.cls-14{stroke:#2ed06e;stroke-miterlimit:10;stroke-width:1.17px;}.cls-15{fill:url(#linear-gradient-3);}.cls-16{clip-path:url(#clip-path);}.cls-17{fill:#2f4367;}.cls-18{fill:#c58f62;}.cls-19{fill:#38527d;}.cls-20{fill:#fffefe;}.cls-21{opacity:0.2;}.cls-22{fill:url(#linear-gradient-4);}.cls-23{fill:#849da9;}.cls-24{fill:url(#linear-gradient-5);}</style><linearGradient id="linear-gradient" x1="-6539.83" y1="364.3" x2="-6524.15" y2="364.3" gradientTransform="translate(-2412.34 6068.43) rotate(116.96)" gradientUnits="userSpaceOnUse"><stop offset="0" stop-color="#2ed06e" stop-opacity="0.1"/><stop offset="1" stop-color="#2ed06e"/></linearGradient><linearGradient id="linear-gradient-2" x1="161.83" y1="158.03" x2="197.58" y2="73.82" gradientUnits="userSpaceOnUse"><stop offset="0" stop-color="#e2e6e8" stop-opacity="0.1"/><stop offset="1" stop-color="#e2e6e8"/></linearGradient><linearGradient id="linear-gradient-3" x1="119.14" y1="100.71" x2="134.82" y2="100.71" gradientTransform="matrix(1, 0, 0, 1, 0, 0)" xlink:href="#linear-gradient"/><clipPath id="clip-path"><circle class="cls-1" cx="139.21" cy="132.75" r="21.01"/></clipPath><linearGradient id="linear-gradient-4" x1="119.14" y1="97.21" x2="134.82" y2="97.21" gradientTransform="matrix(1, 0, 0, 1, 0, 0)" xlink:href="#linear-gradient"/><linearGradient id="linear-gradient-5" x1="-10503.65" y1="-3715.13" x2="-10503.65" y2="-3711.09" gradientTransform="translate(-10323.69 -3537.04) rotate(180)" gradientUnits="userSpaceOnUse"><stop offset="0" stop-opacity="0"/><stop offset="1" stop-opacity="0.2"/></linearGradient></defs><title>Artboard 6</title><g id="frames"><rect class="cls-2" width="360" height="196"/></g><g id="Layer_1" data-name="Layer 1"><path class="cls-3" d="M210.32,67.87l1.07-2.11a57.41,57.41,0,0,1,27.08,29.36l-2.19.89A55,55,0,0,0,210.32,67.87Z"/><circle class="cls-4" cx="179.71" cy="115.93" r="45.73"/><path class="cls-5" d="M222.78,129.4h0l-.8-.33H203a1.13,1.13,0,0,0-.79.33l-9,9a1.15,1.15,0,0,0-.33.8v1.08a1.11,1.11,0,0,0,.33.79l9.77,9.75a1.12,1.12,0,0,1,0,1.59l-5.2,5.19a1.4,1.4,0,0,0-.33.51A45.84,45.84,0,0,0,223,130.55,1.14,1.14,0,0,0,222.78,129.4Z"/><path class="cls-5" d="M174.64,76.58v5.11a2.84,2.84,0,0,1-2.84,2.84h0A2.84,2.84,0,0,0,169,87.37v4.74A2.85,2.85,0,0,1,166.1,95h0a2.85,2.85,0,0,0-2.84,2.85h0a2.84,2.84,0,0,0,2.84,2.84h1.83a1.46,1.46,0,0,1,1,.41l19.28,18.69a2.86,2.86,0,0,0,2,.8h32.36a2.85,2.85,0,0,0,2.85-2.74c0-.62,0-1.24,0-1.87a45.74,45.74,0,0,0-44.31-45.71,2.89,2.89,0,0,0-2.13.83l-3.52,3.52A2.81,2.81,0,0,0,174.64,76.58Z"/><path class="cls-5" d="M164.3,153.6V123.18a3.55,3.55,0,0,0-3.55-3.55h-1.24a3.55,3.55,0,0,1-3.55-3.56v-2.36a3.55,3.55,0,0,0-3.55-3.56h-5.5a3.54,3.54,0,0,1-2.51-1l-3.61-3.61a3.58,3.58,0,0,0-2.52-1h0a3.55,3.55,0,0,0-3.49,2.88,45.82,45.82,0,0,0,24.39,49.44A3.55,3.55,0,0,0,164.3,153.6Z"/><circle class="cls-1" cx="229.68" cy="132.92" r="21.01"/><path class="cls-6" d="M243.6,133.27c.55.4,3.83,6.35.52,5.25a4.43,4.43,0,0,1-2.36-1.66,2.15,2.15,0,0,1-.42-1.09,2.84,2.84,0,0,1,.12-.86l.31-1.27C242,132.7,242.59,132.54,243.6,133.27Z"/><rect class="cls-7" x="225.53" y="126.94" width="8.68" height="8.68" rx="4.34" transform="translate(444.43 286.32) rotate(-173.88)"/><path class="cls-8" d="M225.15,128.77c-.65-1.14.3-4.92,2.39-4.88,1.17,0,.91,1.41,1.66,1.58s1.23-.73,2.33-.38.84,1.57,1.44,1.69.93-1,2-.68c1.77.46,1.5,4.51.48,6.1a8.08,8.08,0,0,1-3.07,2.57c-.23,0,.75-1.6-.13-2-.6-.27-.88.33-1.06.08s.84-1.15.09-2-2.78.17-4-.24A4.28,4.28,0,0,1,225.15,128.77Z"/><circle class="cls-7" cx="249.78" cy="122.26" r="1.32"/><path class="cls-7" d="M244,138.16l-2.27-3.77a14.53,14.53,0,0,0,4.19-5.08c.24-.45,2.26-5.56,2.21-5.58a2.37,2.37,0,0,0,2,1C249.71,133.9,244.42,137.84,244,138.16Z"/><path class="cls-7" d="M230.11,140.33a3.35,3.35,0,0,0,3.35-3.34,15.53,15.53,0,0,1-3.35.31,13.85,13.85,0,0,1-3.34-.3A3.34,3.34,0,0,0,230.11,140.33Z"/><path class="cls-6" d="M217.5,131.72c-.62.29-4.91,5.55-1.47,5.07a4.54,4.54,0,0,0,2.63-1.2,2.23,2.23,0,0,0,.61-1,2.81,2.81,0,0,0,0-.87l-.08-1.31C219.18,131.44,218.62,131.18,217.5,131.72Z"/><circle class="cls-7" cx="215.4" cy="118.45" r="1.32"/><path class="cls-7" d="M215.8,135.77c.92,1.44,3.38-2.82,3.38-2.82a14.68,14.68,0,0,1-2.3-6.17c-.07-.51-.41-6.46-.35-6.46a2.39,2.39,0,0,1-2.26.27C211.7,129.41,215.51,135.33,215.8,135.77Z"/><path class="cls-9" d="M219,131.63l-.12.52a7,7,0,0,1-1.33,2.79,4.12,4.12,0,0,1-2.78,1.42h0c.52,1.06,2.86,3.56,3.44,4.76,1.64,3.4-1,7.87-1,7.87a4.89,4.89,0,0,1-.29.6,21.07,21.07,0,0,0,7,3.52,111.08,111.08,0,0,1,2-16.63,5.89,5.89,0,0,1-3.8-1.64Z"/><path class="cls-9" d="M245.48,138.34h0a4.05,4.05,0,0,1-2.43-1.83,6.9,6.9,0,0,1-.84-3.06l0-.53-3.67,2.58s-1.32,1-4.9,1a.14.14,0,0,0-.14.14,3.35,3.35,0,0,1-6.68.08.26.26,0,0,0-.24-.24c-2.25-.12-3.88-.16-5-.16h0c-.27,1.69-.11,3.71-.56,5.24a19.9,19.9,0,0,1-1.15,2.92,1.36,1.36,0,0,1,.24.67,13.92,13.92,0,0,1-.64,6.05,21,21,0,0,0,18.94.82c.83-.43,1.64-.89,2.42-1.37,0-.13-.63-6.28.47-8.29C241.88,141.23,244.78,139.29,245.48,138.34Z"/><rect class="cls-10" x="165.95" y="35.24" width="27.52" height="27.52" rx="3.24"/><polygon class="cls-11" points="175.22 42.53 177.25 45.92 173.7 49.31 179.83 49.31 180.41 47.95 177.03 47.95 179.07 45.91 177.88 43.89 183.45 43.89 178.56 55.48 180.24 55.48 185.71 42.53 175.22 42.53"/><path class="cls-12" d="M264.07,94.23,209,86.93l-3.9,29.4,55.06,7.3Z"/><path class="cls-13" d="M264.07,94.23,209,86.93l-3.9,29.4,55.06,7.3Zm-5,19.91a8.13,8.13,0,0,0-8.85,5.84l-34.6-4.59a8.1,8.1,0,0,0-7-7.94l1.46-11a8.1,8.1,0,0,0,8.85-5.83l34.6,4.59a8.12,8.12,0,0,0,7,7.94Z"/><circle class="cls-13" cx="234.59" cy="105.28" r="4.85"/><circle class="cls-2" cx="210.32" cy="101.96" r="10.27"/><line class="cls-14" x1="200.14" y1="100.61" x2="195.05" y2="99.93"/><line class="cls-14" x1="200.7" y1="105.86" x2="197.23" y2="107.29"/><line class="cls-14" x1="202.05" y1="95.68" x2="199.07" y2="93.39"/><circle class="cls-2" cx="258.67" cy="108.73" r="10.27"/><line class="cls-14" x1="268.85" y1="110.08" x2="273.94" y2="110.76"/><line class="cls-14" x1="268.29" y1="104.84" x2="271.77" y2="103.4"/><line class="cls-14" x1="266.94" y1="115.01" x2="269.93" y2="117.3"/><circle class="cls-7" cx="249.78" cy="122.26" r="1.32"/><polygon class="cls-12" points="142.32 75.84 133.33 86.36 129.39 78.52 138.38 68 142.32 75.84"/><path class="cls-15" d="M119.56,122.93a58.45,58.45,0,0,1-.42-7A57.36,57.36,0,0,1,133,78.49L134.82,80a55,55,0,0,0-13.32,35.9,55.57,55.57,0,0,0,.41,6.71Z"/><circle class="cls-1" cx="139.21" cy="132.75" r="21.01"/><g class="cls-16"><path class="cls-17" d="M138.26,128.38c.84-.14,4.17-.71,4.31-2.11.18-1.79-1.95-2.74-3.53-2.74a6.18,6.18,0,0,0-5.79,4.53c-1.58,6.52,7.47,14.48,11.68,15.06,3.15.44,6.13-5.78,5.48-7.28-1.34-3.09-8.86-1-9.13-4.81a3.24,3.24,0,0,1-2.79,1.77c-1.65,0-3.14-1.76-2.61-3.05C136.24,128.87,137.4,128.53,138.26,128.38Z"/><rect class="cls-18" x="135.44" y="125.81" width="6.11" height="6.99" rx="2.94"/><path class="cls-19" d="M139,123.53c-2.51,0-5.41,1.8-6,4.45a10.45,10.45,0,0,0,.15,5.66,11.8,11.8,0,0,0,4.8,5.71,23,23,0,0,1-2-4.51,18.27,18.27,0,0,1,.11-5.1,2.72,2.72,0,0,1,2.22-1.36c.84-.14,4.17-.71,4.31-2.11C142.75,124.48,140.62,123.53,139,123.53Z"/><path class="cls-20" d="M135.72,137.21l0-2.74,2,.22a6.87,6.87,0,0,0,1.36,0l2-.2,0,2.74"/><circle class="cls-18" cx="123.26" cy="123.95" r="1.16"/><path class="cls-11" d="M134.28,134.5a10,10,0,0,1-2.68-.53,10.35,10.35,0,0,1-5.78-5.29c-.47-1-.93-2-1.25-2.59l-1.76.42c-.15.52,1.27,5.92,3.28,8.17,1.63,1.81,5.61,4.23,5.8,7.77.07,1.34,3.58-3.94,5.08-5.08"/><rect class="cls-9" x="118.24" y="112.29" width="6.87" height="11.65" rx="0.85" transform="translate(273.44 193.76) rotate(162.34)"/><circle class="cls-21" cx="122.82" cy="122.01" r="0.77"/><rect class="cls-21" x="118.98" y="113.35" width="2.63" height="0.87" transform="translate(-28.85 41.85) rotate(-17.66)"/></g><path class="cls-22" d="M121.5,115.93h-2.36A57.36,57.36,0,0,1,133,78.49L134.82,80A55,55,0,0,0,121.5,115.93Z"/><rect class="cls-23" x="118.24" y="112.29" width="6.87" height="11.65" rx="0.85" transform="translate(273.44 193.76) rotate(162.34)"/><circle class="cls-8" cx="122.82" cy="122.01" r="0.77"/><rect class="cls-8" x="118.98" y="113.35" width="2.63" height="0.87" transform="translate(-28.85 41.85) rotate(-17.66)"/><path class="cls-11" d="M140.8,134.45h-.07a.54.54,0,0,0-.37.23L139,136.73a.48.48,0,0,1-.83,0l-1.36-2a.52.52,0,0,0-.44-.23l-2.53,0-2.35,5.89a26,26,0,0,1,.54,6.38,11.85,11.85,0,0,1-1.61,5.09,21,21,0,0,0,14.78,1,64.67,64.67,0,0,1-.57-11l0,0c.64-2.8,2.17,1.52,2.15,3.68a62.67,62.67,0,0,1-.93,7,20.82,20.82,0,0,0,3-1.3,28.33,28.33,0,0,0,1.22-6.47c0-3-1.76-8.28-3.25-9.61C145.83,134.35,142.69,134.41,140.8,134.45Z"/><ellipse class="cls-24" cx="179.97" cy="176.07" rx="20.23" ry="2.02"/></g></svg>